<?xml version="1.0" encoding="utf-8"?>
<!-- Generator: Adobe Illustrator 16.0.0, SVG Export Plug-In . SVG Version: 6.00 Build 0)  -->
<!DOCTYPE svg PUBLIC "-//W3C//DTD SVG 1.1//EN" "http://www.w3.org/Graphics/SVG/1.1/DTD/svg11.dtd">
<svg version="1.1" id="Layer_1" xmlns="http://www.w3.org/2000/svg" xmlns:xlink="http://www.w3.org/1999/xlink" x="0px" y="0px"
	 width="50px" height="50px" viewBox="0 0 50 50" enable-background="new 0 0 50 50" xml:space="preserve">
<path fill="#169590" d="M6.479,30.383H0.721C2.447,38.282,7.93,44.776,15.204,47.9v-6.255C11.019,39.171,7.852,35.157,6.479,30.383z
	"/>
<path fill="#169590" d="M34.796,41.646V47.9c7.273-3.124,12.757-9.618,14.483-17.518h-5.759
	C42.149,35.157,38.981,39.171,34.796,41.646z"/>
<path fill="#169590" d="M25,5.782c8.817,0,16.25,5.921,18.542,14.005h5.753C46.88,8.589,36.92,0.195,24.999,0.195
	c-11.919,0-21.878,8.394-24.293,19.592h5.754C8.75,11.704,16.184,5.782,25,5.782z"/>
<path fill="#FFFFFF" d="M49.756,22.836H27.25v26.969c1.544-0.14,3.047-0.417,4.497-0.825V27.334h18.002
	c0.068-0.752,0.105-1.513,0.105-2.283C49.854,24.305,49.819,23.566,49.756,22.836z"/>
<path fill="#FFFFFF" d="M0.245,22.836c-0.065,0.73-0.099,1.469-0.099,2.215c0,0.77,0.037,1.531,0.105,2.283h18.002v21.646
	c1.45,0.408,2.954,0.686,4.498,0.825V22.836H0.245z"/>
<path fill="#FFFFFF" d="M10.854,19.787h28.328c0.057-0.73,0.087-1.469,0.087-2.215c0-0.77-0.032-1.531-0.092-2.284H10.859
	c-0.06,0.752-0.091,1.514-0.091,2.284C10.768,18.318,10.798,19.057,10.854,19.787z"/>
</svg>
