<?xml version="1.0" encoding="utf-8"?>
<!-- Generator: Adobe Illustrator 16.0.0, SVG Export Plug-In . SVG Version: 6.00 Build 0)  -->
<!DOCTYPE svg PUBLIC "-//W3C//DTD SVG 1.1//EN" "http://www.w3.org/Graphics/SVG/1.1/DTD/svg11.dtd">
<svg version="1.1" id="Layer_1" xmlns="http://www.w3.org/2000/svg" xmlns:xlink="http://www.w3.org/1999/xlink" x="0px" y="0px"
	 width="50px" height="50px" viewBox="0 0 50 50" enable-background="new 0 0 50 50" xml:space="preserve">
<path fill="#0C171E" d="M6.34,30.424H0.538c1.74,7.959,7.264,14.502,14.593,17.649v-6.302C10.914,39.277,7.722,35.232,6.34,30.424z"
	/>
<path fill="#0C171E" d="M34.87,41.771v6.302c7.328-3.147,12.853-9.69,14.593-17.649H43.66C42.277,35.232,39.087,39.277,34.87,41.771
	z"/>
<path fill="#0C171E" d="M25,5.637c8.883,0,16.374,5.966,18.682,14.11h5.797C47.045,8.465,37.01,0.008,24.999,0.008
	c-12.009,0-22.043,8.457-24.477,19.739H6.32C8.628,11.604,16.118,5.637,25,5.637z"/>
<path fill="#169590" d="M49.941,22.82H27.268v27.172c1.556-0.141,3.069-0.422,4.53-0.832V27.352h18.138
	c0.069-0.758,0.106-1.523,0.106-2.3C50.042,24.299,50.007,23.555,49.941,22.82z"/>
<path fill="#169590" d="M0.058,22.82c-0.065,0.735-0.1,1.479-0.1,2.232c0,0.775,0.037,1.542,0.106,2.3h18.138V49.16
	c1.461,0.41,2.976,0.691,4.532,0.832V22.82H0.058z"/>
<path fill="#169590" d="M10.748,19.748H39.29c0.058-0.736,0.087-1.479,0.087-2.232c0-0.775-0.031-1.542-0.092-2.301H10.753
	c-0.061,0.758-0.092,1.525-0.092,2.301C10.661,18.268,10.691,19.012,10.748,19.748z"/>
</svg>
